<?xml version="1.0" standalone="no"?><!DOCTYPE svg PUBLIC "-//W3C//DTD SVG 1.1//EN" "http://www.w3.org/Graphics/SVG/1.1/DTD/svg11.dtd"><svg class="icon" width="32px" height="32.00px" viewBox="0 0 1024 1024" version="1.1" xmlns="http://www.w3.org/2000/svg"><path fill="#2873A8" d="M897.5 126.6c16.7 19.8 19 47.9 6.9 84.5-12.1 36.5-32.8 69.3-61.7 98.2l-92 91.9 91.5 397.1c1.9 7.2-0.4 13.6-6.9 18.8l-73.1 54.7c-2.6 2.3-6.3 3.4-10.8 3.4-1.5 0-2.8-0.2-3.9-0.6-5.8-1.2-9.7-4.2-12-9.1L576.1 575.8 428.4 723.5l30.2 110.6c1.9 6.5 0.4 12.3-4.6 17.6l-54.8 55c-3.4 3.4-7.8 5.2-13 5.2H385c-5.8-0.7-10.3-3.2-13.7-7.5l-108-143.8-143.8-107.7c-4.2-2.6-6.6-7.1-7.5-13-0.4-5 1.3-9.7 5.2-14.3l54.7-55.3c3.4-3.4 7.8-5.2 13-5.2 2.3 0 3.8 0.2 4.6 0.6l110.6 30.2 147.7-147.7-289.4-159.6c-5.3-3-8.5-7.6-9.7-13.7-0.7-6.2 0.9-11.1 5.2-15.4l73.1-73.1c5.3-5 11-6.5 17.2-4.6l379.5 90.7 91.3-91.3c28.9-28.9 61.7-49.4 98.2-61.7 36.2-12 64.5-9.6 84.3 7.1z" /></svg>