<?xml version="1.0" standalone="no"?><!DOCTYPE svg PUBLIC "-//W3C//DTD SVG 1.1//EN" "http://www.w3.org/Graphics/SVG/1.1/DTD/svg11.dtd"><svg class="icon" width="32px" height="32.00px" viewBox="0 0 1024 1024" version="1.1" xmlns="http://www.w3.org/2000/svg"><path fill="#000000" d="M490.666667 42.666667l-469.333333 469.333333 128 0 0 384c0 42.666667 42.666667 85.333333 85.333333 85.333333l85.333333 0 42.666667 0c25.6 0 42.666667-17.066667 42.666667-42.666667l0-42.666667 0-42.666667 0-128c0-25.6 17.066667-42.666667 42.666667-42.666667l128 0c25.6 0 42.666667 17.066667 42.666667 42.666667l0 85.333333 0 85.333333 0 42.666667c0 25.6 17.066667 42.666667 42.666667 42.666667l42.666667 0 85.333333 0c42.666667 0 85.333333-42.666667 85.333333-85.333333l0-384 128 0L490.666667 42.666667z" /></svg>