<?xml version="1.0" standalone="no"?><!DOCTYPE svg PUBLIC "-//W3C//DTD SVG 1.1//EN" "http://www.w3.org/Graphics/SVG/1.1/DTD/svg11.dtd"><svg class="icon" width="32px" height="32.00px" viewBox="0 0 1024 1024" version="1.1" xmlns="http://www.w3.org/2000/svg"><path fill="#2873A8" d="M342.677 595.002M844 885.5 180 885.5c-45.841 0-83-37.159-83-83L97 346l830 0 0 456.5C927 848.341 889.841 885.5 844 885.5zM636.5 470.5c0-22.916-18.58-41.5-41.5-41.5-4.121 0-161.879 0-166 0-22.916 0-41.5 18.584-41.5 41.5 0 22.92 18.584 41.5 41.5 41.5 4.121 0 17.426 0 20.75 0l93.375 0L429 740.25c0 11.462 9.292 20.75 20.75 20.75l41.5 0c11.462 0 20.75-9.288 20.75-20.75l124.5-249C636.5 487.926 636.5 474.621 636.5 470.5zM97 263c0-45.841 37.159-83 83-83l87.187 0c8.611-24.058 31.042-41.5 58.063-41.5 27.021 0 49.451 17.442 58.063 41.5l257.375 0c8.611-24.058 31.042-41.5 58.063-41.5 27.021 0 49.451 17.442 58.063 41.5L844 180c45.841 0 83 37.159 83 83l0 41.5L97 304.5 97 263zM678 263l41.5 0 0-83L678 180 678 263zM304.5 263 346 263l0-83-41.5 0L304.5 263z" /></svg>